<?xml version="1.0" encoding="UTF-8"?>
<svg id="_レイヤー_2" data-name="レイヤー 2" xmlns="http://www.w3.org/2000/svg" viewBox="0 0 559.94 547.24">
  <defs>
    <style>
      .cls-1 {
        fill: none;
        stroke: #fff;
        stroke-miterlimit: 10;
        stroke-width: 20px;
      }
    </style>
  </defs>
  <g id="_レイヤー_1-2" data-name="レイヤー 1">
    <path class="cls-1" d="M280.72,537.24c39.28,0,73.73-20.63,93.15-51.64,11.98,4.49,24.95,6.95,38.5,6.95,60.68,0,109.86-49.19,109.86-109.86,0-11.11-1.66-21.83-4.73-31.93,20.03-19.9,32.44-47.46,32.44-77.93s-12.41-58.03-32.44-77.93c3.07-10.11,4.73-20.82,4.73-31.93,0-60.68-49.19-109.86-109.86-109.86-13.86,0-27.1,2.59-39.31,7.27-19.56-30.3-53.6-50.38-92.34-50.38s-71.77,19.47-91.46,49.01c-11.14-3.8-23.08-5.9-35.51-5.9-60.68,0-109.86,49.19-109.86,109.86,0,9.46,1.2,18.63,3.44,27.39-22.87,20.13-37.32,49.61-37.32,82.48s14.45,62.34,37.32,82.48c-2.25,8.76-3.44,17.93-3.44,27.39,0,60.68,49.19,109.86,109.86,109.86,12.12,0,23.77-1.99,34.68-5.62,19.57,30.26,53.58,50.3,92.3,50.3Z"/>
    <circle class="cls-1" cx="279.97" cy="273.62" r="86.66"/>
  </g>
</svg>